<svg width="24" height="24" viewBox="0 0 24 24" fill="none" xmlns="http://www.w3.org/2000/svg">
<path d="M15.2461 3C15.4105 4.09388 14.9569 5.16408 14.3605 5.92239C13.7213 6.73445 12.62 7.36339 11.5562 7.33059C11.3617 6.28378 11.8604 5.2066 12.4652 4.48017C13.1307 3.67996 14.2711 3.0662 15.2461 3Z" fill="black"/>
<path d="M18.4501 18.3888C18.9998 17.5606 19.2045 17.1424 19.6316 16.2056C16.5283 15.0452 16.0296 10.7049 19.1009 9.03944C18.1634 7.88269 16.8479 7.21367 15.6068 7.21367C14.7103 7.21367 14.0963 7.44358 13.5383 7.65252C13.0737 7.82651 12.6479 7.98595 12.1302 7.98595C11.5707 7.98595 11.0752 7.81114 10.5561 7.62802C9.9852 7.42663 9.38582 7.21519 8.64162 7.21519C7.24625 7.21519 5.76239 8.05397 4.8218 9.48768C3.49802 11.5045 3.72234 15.2988 5.86871 18.5315C6.6363 19.6876 7.66139 20.9877 9.00176 20.9999C9.55701 21.005 9.92677 20.8419 10.327 20.6654C10.7855 20.4632 11.284 20.2434 12.1471 20.2385C13.0151 20.234 13.5051 20.4562 13.9573 20.6613C14.3472 20.8381 14.7089 21.0022 15.2605 20.9972C16.6009 20.985 17.6825 19.5449 18.4501 18.3888Z" fill="black"/>
</svg>
