<svg width="24" height="24" viewBox="0 0 24 24" fill="none" xmlns="http://www.w3.org/2000/svg">
<path d="M11.9997 6.48C13.6897 6.48 14.8297 7.21 15.4797 7.82L18.0197 5.34C16.4597 3.89 14.4297 3 11.9997 3C8.47972 3 5.43972 5.02 3.95972 7.96L6.86972 10.22C7.59972 8.05 9.61972 6.48 11.9997 6.48V6.48Z" fill="#EA4335"/>
<path d="M20.6388 12.2004C20.6388 11.4604 20.5788 10.9204 20.4488 10.3604H11.9988V13.7004H16.9588C16.8588 14.5304 16.3188 15.7804 15.1188 16.6204L17.9588 18.8204C19.6588 17.2504 20.6388 14.9404 20.6388 12.2004V12.2004Z" fill="#4285F4"/>
<path d="M6.88 13.78C6.69 13.22 6.58 12.62 6.58 12C6.58 11.38 6.69 10.78 6.87 10.22L3.96 7.95996C3.35 9.17996 3 10.55 3 12C3 13.45 3.35 14.82 3.96 16.04L6.88 13.78V13.78Z" fill="#FBBC05"/>
<path d="M12.0002 21.0003C14.4302 21.0003 16.4702 20.2003 17.9602 18.8203L15.1202 16.6203C14.3602 17.1503 13.3402 17.5203 12.0002 17.5203C9.62022 17.5203 7.60022 15.9503 6.88022 13.7803L3.97021 16.0403C5.45022 18.9803 8.48022 21.0003 12.0002 21.0003V21.0003Z" fill="#34A853"/>
</svg>
