<svg width="24" height="24" viewBox="0 0 24 24" fill="none" xmlns="http://www.w3.org/2000/svg">
<path fill-rule="evenodd" clip-rule="evenodd" d="M3.50099 17.1316C1.92433 16.6866 1.661 15.76 2.37933 15.2291C3.04266 14.7358 4.17516 14.3641 4.17516 14.3641L8.84432 12.705V14.5966L5.48432 15.7975C4.89016 16.01 4.80016 16.3125 5.28266 16.4716C5.76515 16.6308 6.64015 16.5866 7.23349 16.3708L8.84432 15.7841V17.4783C7.05349 17.8016 5.32432 17.7325 3.50099 17.1316ZM14.0326 12.6033V7.77749C14.0326 7.21166 13.9285 6.69083 13.3968 6.54166C12.991 6.40916 12.7368 6.7875 12.7368 7.35416V19.4333L9.48015 18.3991V4C10.866 4.25667 12.8826 4.86417 13.9668 5.22916C16.726 6.17666 17.6601 7.35749 17.6601 10.0133C17.6601 12.6008 16.0626 13.5825 14.0326 12.6033ZM21.8235 15.8158C21.431 16.3083 20.476 16.6591 20.476 16.6591L13.3551 19.2141V17.3291L18.5943 15.4608C19.1876 15.2491 19.2818 14.9475 18.796 14.7875C18.3126 14.6275 17.4385 14.6733 16.8443 14.8883L13.3551 16.1208V14.1625C14.1601 13.8917 14.9901 13.69 15.9835 13.5792C17.4035 13.4233 19.1401 13.6008 20.5035 14.1175C22.0385 14.6041 22.2118 15.3225 21.8235 15.8158Z" fill="white"/>
</svg>
