<svg width="24" height="24" viewBox="0 0 24 24" fill="none" xmlns="http://www.w3.org/2000/svg">
<path d="M2 11.198C2.40966 6.05048 6.72065 2 11.9828 2C17.5153 2 22 6.47697 22 11.9999C22 17.5228 17.5153 22 11.9828 22C7.39698 22 3.53387 18.9229 2.34486 14.7253L6.18469 16.31C6.44476 17.605 7.59225 18.583 8.96489 18.583C10.5284 18.583 11.8002 17.3134 11.8002 15.7524C11.8002 15.7076 11.7989 15.6627 11.7971 15.6182L15.2025 13.1925C15.231 13.1934 15.2594 13.1941 15.2882 13.1941C17.3712 13.1941 19.066 11.5019 19.066 9.42251C19.066 7.34311 17.3712 5.65117 15.2882 5.65117C13.2049 5.65117 11.5103 7.34311 11.5103 9.42251C11.5103 9.43074 11.5104 9.43885 11.5105 9.44696C11.5106 9.45508 11.5107 9.46319 11.5107 9.47141L9.12282 12.9261C9.07054 12.9233 9.01783 12.9217 8.96489 12.9217C8.37335 12.9217 7.82377 13.1035 7.36908 13.414L2 11.198Z" fill="white"/>
<path fill-rule="evenodd" clip-rule="evenodd" d="M17.8054 9.42264C17.8054 8.03704 16.6762 6.90952 15.2882 6.90952C13.9001 6.90952 12.7707 8.03704 12.7707 9.42264C12.7707 10.808 13.9001 11.9353 15.2882 11.9353C16.6762 11.9353 17.8054 10.808 17.8054 9.42264ZM13.4013 9.41826C13.4013 8.3756 14.2481 7.53073 15.2923 7.53073C16.3368 7.53073 17.1834 8.3756 17.1834 9.41826C17.1834 10.4607 16.3368 11.3058 15.2923 11.3058C14.2481 11.3058 13.4013 10.4607 13.4013 9.41826Z" fill="white"/>
<path d="M8.27754 17.1736L7.04702 16.6662C7.26514 17.1192 7.64251 17.4985 8.14333 17.7073C9.22602 18.1577 10.4745 17.6446 10.9259 16.5631C11.1443 16.0395 11.1458 15.4621 10.9292 14.9376C10.7129 14.4129 10.3048 14.0037 9.77999 13.7853C9.2594 13.5691 8.70169 13.5772 8.21164 13.7616L9.4828 14.2864C10.2815 14.6188 10.6591 15.5343 10.3263 16.3315C9.99372 17.1288 9.07621 17.506 8.27754 17.1736Z" fill="white"/>
</svg>
