<svg width="24" height="24" viewBox="0 0 24 24" fill="none" xmlns="http://www.w3.org/2000/svg">
<path fill-rule="evenodd" clip-rule="evenodd" d="M7.37356 3.41331C9.29773 3.31251 11.7977 4.80374 11.9827 4.84039C12.0111 4.84456 12.4027 4.67128 12.8544 4.44968C15.4311 3.19587 16.6452 3.40915 17.1852 3.43331C14.6086 1.84877 11.0277 1.41723 7.75273 2.96178C6.8094 3.40915 6.78523 3.44164 7.37356 3.41331ZM21.8469 10.0372C21.1661 6.81232 19.1252 4.78374 18.8386 4.78374C18.5444 4.78374 17.8627 5.04617 17.3877 5.34441C16.4477 5.92924 15.7336 6.60988 14.7936 7.47296C16.5036 9.6215 18.9161 13.093 19.7502 15.6289C20.0244 16.4637 20.1411 17.2859 20.0486 17.7375C19.9802 18.0799 19.9802 18.0799 20.1044 17.9232C20.3511 17.6117 20.9077 16.6611 21.1294 16.1688C21.4277 15.5156 21.7336 14.5484 21.8794 13.8019C22.0527 12.8947 22.0369 10.9478 21.8469 10.0372ZM9.28106 7.47712C8.0844 6.39244 6.93856 5.30443 5.7969 4.9212C5.1844 4.71543 5.1394 4.72793 4.64023 5.24778C3.46273 6.47325 2.4819 8.461 2.20856 10.1822C1.99023 11.5609 1.9619 11.9483 2.03856 12.6215C2.2644 14.6575 2.7369 16.0638 3.6719 17.4959C4.05523 18.084 4.16023 18.1932 4.0469 17.8941C3.87773 17.4509 4.0344 16.3829 4.43023 15.3148C5.0069 13.742 6.60356 10.7628 9.28106 7.47712ZM16.5927 14.5084C18.3794 16.6969 19.2011 18.4906 18.7861 19.2937C18.4677 19.9018 16.4994 21.0915 15.0519 21.5472C13.8586 21.9221 12.2936 22.0837 11.0027 21.9579C9.46273 21.8096 7.90273 21.2564 6.56273 20.3867C5.43856 19.6527 5.1844 19.3495 5.1844 18.7497C5.1844 17.5434 6.51106 15.4306 8.78106 13.0205C10.0719 11.6534 11.8669 10.0489 12.0636 10.0939C12.4427 10.178 15.4636 13.1213 16.5927 14.5084Z" fill="white"/>
</svg>
